<?xml version="1.0" encoding="UTF-8" standalone="no"?>
<!-- Created with Inkscape (http://www.inkscape.org/) -->

<svg
   xmlns:dc="http://purl.org/dc/elements/1.1/"
   xmlns:cc="http://creativecommons.org/ns#"
   xmlns:rdf="http://www.w3.org/1999/02/22-rdf-syntax-ns#"
   xmlns:svg="http://www.w3.org/2000/svg"
   xmlns="http://www.w3.org/2000/svg"
   xmlns:sodipodi="http://sodipodi.sourceforge.net/DTD/sodipodi-0.dtd"
   xmlns:inkscape="http://www.inkscape.org/namespaces/inkscape"
   width="78.4813mm"
   height="78.653114mm"
   viewBox="0 0 78.4813 78.653114"
   version="1.1"
   id="svg8"
   inkscape:version="0.92pre3 r"
   sodipodi:docname="ocp_logo.svg">
  <defs
     id="defs2" />
  <sodipodi:namedview
     id="base"
     pagecolor="#ffffff"
     bordercolor="#666666"
     borderopacity="1.0"
     inkscape:pageopacity="0.0"
     inkscape:pageshadow="2"
     inkscape:zoom="1.4"
     inkscape:cx="215.80111"
     inkscape:cy="202.12592"
     inkscape:document-units="mm"
     inkscape:current-layer="g4526"
     showgrid="false"
     inkscape:window-width="956"
     inkscape:window-height="1057"
     inkscape:window-x="960"
     inkscape:window-y="19"
     inkscape:window-maximized="0" />
  <metadata
     id="metadata5">
    <rdf:RDF>
      <cc:Work
         rdf:about="">
        <dc:format>image/svg+xml</dc:format>
        <dc:type
           rdf:resource="http://purl.org/dc/dcmitype/StillImage" />
        <dc:title></dc:title>
      </cc:Work>
    </rdf:RDF>
  </metadata>
  <g
     inkscape:label="Layer 1"
     inkscape:groupmode="layer"
     id="layer1"
     transform="translate(-26.856553,-53.110864)">
    <path
       style="fill:#000000;stroke-width:0.26458332"
       d="m 33.501592,131.4635 c -2.368293,-0.21494 -3.722658,-0.99815 -5.244565,-3.03287 l -1.151714,-1.53979 -0.165122,-7.19051 c -0.184983,-8.05538 0.03127,-11.43084 0.851071,-13.28414 l 0.551182,-1.24603 -0.677709,-1.24518 -0.677709,-1.24518 0.0832,-10.298536 c 0.08247,-10.20827 0.08855,-10.30758 0.693593,-11.3314 l 0.610393,-1.03287 -0.581351,-1.34838 c -0.850676,-1.97305 -1.12841,-6.9515 -0.80567,-14.44179 0.190874,-4.42988 0.365599,-6.24167 0.65507,-6.79266 0.47587,-0.90581 2.302221,-2.69342 3.715274,-3.63648 l 1.02911,-0.68682 6.908391,0.009 c 8.129449,0.0111 11.548912,0.26545 13.162036,0.97901 1.143039,0.50562 1.179308,0.50586 2.127077,0.014 1.446014,-0.75041 6.639817,-1.08198 14.571922,-0.93025 6.702121,0.12819 6.836329,0.1417 8.241933,0.8294 l 1.428869,0.69908 1.018485,-0.60191 c 1.002601,-0.59252 1.171165,-0.60318 10.808069,-0.68359 l 9.789583,-0.0817 1.6373,1.19731 c 0.99895,0.7305 1.92735,1.69075 2.38125,2.46294 l 0.74395,1.26563 v 9.525 c 0,8.61018 -0.0465,9.64199 -0.48423,10.74316 -0.47658,1.19893 -0.47553,1.23439 0.0662,2.24504 0.53139,0.99146 0.55037,1.39523 0.55037,11.70557 0,10.434276 -0.0128,10.696626 -0.5573,11.461366 -0.56776,0.79734 -0.56544,0.96357 0.0418,3.0032 0.20498,0.68845 0.35899,4.25916 0.44067,10.21666 0.11406,8.31942 0.0836,9.24038 -0.33296,10.05416 -0.84296,1.64701 -2.02394,2.89686 -3.39381,3.59175 l -1.35782,0.68877 -9.260403,0.0242 c -8.41066,0.022 -9.36968,-0.0204 -10.451047,-0.46165 -1.438545,-0.58703 -1.595184,-0.58854 -3.439584,-0.0331 -1.193601,0.35945 -3.193492,0.46446 -11.124568,0.58415 l -9.669359,0.14592 -1.42149,-0.6803 -1.42149,-0.6803 -1.079985,0.57072 c -1.030745,0.5447 -1.441871,0.57269 -9.017484,0.61396 -4.365625,0.0238 -8.771763,-0.0325 -9.791418,-0.12503 z m 17.406687,-3.57525 c 0.468269,-0.20036 1.201095,-0.73614 1.628503,-1.19063 0.427408,-0.45448 0.948179,-0.82633 1.157269,-0.82633 0.20909,0 0.868299,0.55455 1.464908,1.23233 l 1.084744,1.23234 10.058546,-0.16602 10.058546,-0.16601 0.531733,-0.73329 c 0.754817,-1.04092 1.410449,-1.66394 1.751047,-1.66394 0.161298,0 0.786376,0.52653 1.389063,1.17006 l 1.09579,1.17005 4.937769,0.18416 c 2.71578,0.10129 6.99953,0.0957 9.51946,-0.0123 l 4.581673,-0.19649 0.86544,-0.94484 0.86545,-0.94484 v -9.0422 -9.04216 l -1.07413,-1.02645 c -1.803617,-1.72356 -1.812717,-1.83296 -0.2745,-3.30011 l 1.34863,-1.28632 v -9.933776 -9.93376 l -1.35478,-1.29218 -1.354777,-1.29219 1.354777,-1.39085 1.35478,-1.39086 v -9.08033 -9.08033 l -1.14528,-1.19527 -1.145267,-1.19527 h -4.633296 c -2.54832,0 -6.64662,0.0784 -9.10734,0.17426 l -4.474026,0.17425 -1.136798,1.14866 c -0.625239,0.63177 -1.363321,1.14867 -1.640181,1.14867 -0.27686,0 -0.811649,-0.40416 -1.188421,-0.89814 -1.244502,-1.63162 -2.531994,-1.81969 -12.174184,-1.77835 -8.804254,0.0377 -8.700878,0.0226 -10.193091,1.49239 -0.661194,0.65125 -1.351685,1.1841 -1.534425,1.1841 -0.182742,0 -0.776855,-0.4815 -1.32025,-1.06999 -0.876452,-0.94919 -1.181423,-1.09794 -2.701363,-1.3176 -0.942354,-0.13618 -5.000984,-0.25 -9.019177,-0.25293 l -7.305807,-0.005 -1.009752,0.80245 c -0.555363,0.44135 -1.150119,1.0069 -1.321678,1.25677 -0.390147,0.56825 -0.763805,12.51039 -0.495069,15.82242 0.175067,2.1576 0.263874,2.42107 1.351617,4.00988 l 1.164239,1.70054 -1.05524,1.1448 c -0.609354,0.66107 -1.120503,1.51818 -1.209694,2.02845 -0.08495,0.48601 -0.181647,4.88091 -0.214883,9.76644 l -0.06043,8.882806 1.124479,1.46039 c 0.618464,0.80322 1.12448,1.62921 1.12448,1.83554 0,0.20633 -0.284669,0.68214 -0.632597,1.05737 -1.554792,1.67677 -1.57511,1.80525 -1.698369,10.73908 -0.111226,8.06172 -0.100857,8.27275 0.450297,9.16453 0.31028,0.50205 0.757023,1.07288 0.992764,1.26853 0.578177,0.47984 3.660682,0.66994 11.678174,0.72018 5.166656,0.0324 6.883019,-0.041 7.540625,-0.32237 z m 10.184896,-0.66092 c -5.745261,-0.21478 -5.592993,-0.0957 -5.717729,-4.47222 l -0.0884,-3.10153 0.932122,-0.89613 0.932122,-0.89612 1.669817,0.41207 c 2.319205,0.57232 5.710442,1.05187 6.032204,0.85301 0.168034,-0.10385 0.267822,-2.41289 0.267822,-6.1973 v -6.03179 l -1.785935,-0.4363 C 57.672059,105.0775 53.608895,101.00141 52.155519,95.245754 l -0.283947,-1.12448 h -6.20751 c -3.414131,0 -6.207511,0.0961 -6.207511,0.21355 0,0.11745 0.238125,1.50964 0.529167,3.09375 0.741354,4.035116 0.710616,4.729556 -0.239281,5.405946 -0.653043,0.46501 -1.163669,0.54718 -3.400102,0.54718 -3.213356,0 -4.128241,-0.27944 -4.60386,-1.40623 -0.525052,-1.2439 -0.507666,-17.808906 0.01972,-18.794346 0.469153,-0.87662 1.516111,-1.21449 4.502852,-1.45313 l 2.394858,-0.19134 1.067599,0.9345 1.067598,0.9345 -0.669278,3.25465 c -0.368102,1.79006 -0.669278,3.72483 -0.669278,4.29948 v 1.04483 h 6.093721 c 4.653473,0 6.113714,-0.0782 6.178312,-0.33073 0.04653,-0.1819 0.28178,-1.16417 0.52279,-2.18281 0.710862,-3.00451 2.050473,-5.43054 3.946374,-7.14685 1.79819,-1.62785 5.015841,-3.35082 7.335888,-3.92817 l 1.455208,-0.36213 0.07112,-6.15999 0.07112,-6.15998 -1.790909,0.1672 c -0.985002,0.092 -2.481329,0.34739 -3.325173,0.56762 -2.292506,0.59831 -3.012075,0.525 -3.938352,-0.40128 l -0.801698,-0.8017 0.0962,-3.0305 c 0.09202,-2.89868 0.128053,-3.06232 0.82854,-3.76236 l 0.73234,-0.73186 h 9.143524 9.143525 l 0.771863,0.86407 c 0.75588,0.84618 0.771837,0.92562 0.770639,3.83646 -0.0013,2.93197 -0.01193,2.9838 -0.788564,3.81238 -0.733282,0.78233 -0.85362,0.8217 -1.752579,0.57349 -1.507686,-0.41629 -6.563228,-1.24057 -6.784195,-1.10612 -0.109141,0.0664 -0.198437,2.91168 -0.198437,6.32283 v 6.20209 h 0.644607 c 1.009271,0 4.428077,1.41387 6.096246,2.52113 3.03617,2.0153 5.47859,5.816 6.031018,9.385 l 0.286695,1.85221 h 6.170718 6.17072 v -1.93613 c 0,-1.08875 -0.22888,-2.79678 -0.52294,-3.9026 -0.71935,-2.70506 -0.68886,-3.01312 0.37888,-3.82753 0.889,-0.67807 1.00211,-0.6949 4.09232,-0.60877 3.811483,0.10622 3.934073,0.18567 4.266413,2.76511 0.27696,2.14962 0.32633,11.67296 0.0786,15.163027 -0.22242,3.133379 -0.39763,3.276109 -4.194183,3.416649 -2.34769,0.0869 -2.82679,0.0277 -3.80238,-0.47003 -0.61393,-0.3132 -1.17967,-0.73474 -1.25718,-0.93675 -0.0775,-0.20201 0.10233,-1.35749 0.39968,-2.567739 0.29734,-1.210247 0.57492,-2.795757 0.61685,-3.523367 l 0.0762,-1.32291 -6.25352,-0.0709 -6.253526,-0.0709 -0.184901,0.9969 c -0.101698,0.5483 -0.554964,1.88843 -1.007261,2.97807 -0.678728,1.635147 -1.194713,2.355976 -2.954282,4.127176 -2.262587,2.27754 -4.332912,3.51084 -6.894425,4.10702 -0.727605,0.16935 -1.471745,0.34745 -1.653646,0.39579 -0.252725,0.0671 -0.330729,1.55633 -0.330729,6.31389 0,3.42431 0.0893,6.22599 0.198437,6.22596 0.362871,-1e-4 6.539064,-1.0517 7.109799,-1.21057 0.413216,-0.11502 0.779468,0.0765 1.387838,0.72562 l 0.826479,0.88187 0.0013,3.19504 c 0.0016,4.45941 0.282541,4.25973 -6.216483,4.4201 -2.764896,0.0682 -7.018259,0.0496 -9.45192,-0.0414 z m -28.699474,-0.67136 -0.742358,-0.63823 -0.0796,-8.59765 -0.0796,-8.59766 0.834613,-0.95057 0.834614,-0.95057 h 4.997633 4.997634 l 0.729645,0.8582 c 1.496641,1.76033 4.861497,5.13842 6.392697,6.41784 l 1.583256,1.32292 0.01487,5.17602 0.01487,5.17602 -0.742082,0.71096 -0.742082,0.71095 h -8.635873 -8.635873 z m 49.058733,0.17473 c -0.780063,-0.86196 -0.96448,-1.88622 -1.146376,-6.36707 -0.207108,-5.10199 -0.484349,-4.37332 2.629879,-6.9121 1.76936,-1.44241 4.69854,-4.53784 5.58563,-5.90264 l 0.47293,-0.7276 4.79822,5.3e-4 c 5.707476,5.3e-4 6.492373,0.22476 6.844903,1.95585 0.11539,0.56663 0.17834,4.6696 0.13988,9.11771 l -0.0699,8.08749 -0.899016,0.60572 c -0.890661,0.59998 -0.978291,0.60561 -9.417847,0.60561 -7.78054,0 -8.55517,-0.0402 -8.938289,-0.4635 z M 32.909608,77.811054 c -1.38647,-0.6835 -1.523408,-1.58813 -1.516144,-10.01582 0.0071,-8.20332 0.15211,-9.06648 1.634144,-9.72512 0.539099,-0.23958 2.994305,-0.32904 9.030399,-0.32904 h 8.289997 l 0.771982,0.86407 0.771983,0.86407 v 5.00495 5.00495 l -2.328622,1.97564 c -2.518331,2.1366 -4.168501,3.90053 -5.292509,5.65739 l -0.713245,1.11481 -4.894792,0.004 c -3.95732,0.003 -5.059196,-0.0774 -5.753193,-0.41953 z m 55.487719,-0.38756 c -1.31797,-1.89098 -4.07487,-4.75911 -6.11929,-6.3662 l -2.130261,-1.67456 0.173787,-4.10104 c 0.282998,-6.67825 0.343376,-6.86429 2.395534,-7.38102 1.25991,-0.31725 10.6465,-0.36222 14.478466,-0.0694 3.280037,0.25067 3.413097,0.41477 3.741687,4.61454 0.16018,2.04722 0.16491,5.34446 0.0127,8.86179 -0.22523,5.20538 -0.28259,5.6417 -0.81102,6.16992 -0.533247,0.53301 -0.897057,0.57696 -5.842533,0.70568 l -5.27388,0.13727 -0.6252,-0.89701 z"
       id="path4494"
       inkscape:connector-curvature="0" />
    <g
       id="g4526"
       transform="translate(-0.61421136,4.3939737)">
      <path
         style="fill:#da242f;stroke-width:0.05660788"
         d="m 65.72698,105.02774 c -3.530425,-0.19422 -6.836617,-1.44249 -9.736556,-3.6761 -0.699422,-0.5387 -2.28484,-2.13412 -2.855008,-2.873005 -0.263406,-0.341347 -0.488223,-0.580229 -0.546066,-0.580229 -0.05408,0 -0.690759,0.216137 -1.414844,0.4803 -0.968671,0.3534 -1.335713,0.464369 -1.389162,0.42002 -0.108495,-0.09001 -0.700183,-1.020194 -1.063178,-1.671353 -0.562724,-1.009436 -1.182382,-2.532583 -1.497946,-3.682019 l -0.111349,-0.405586 0.15073,-0.06001 c 0.0829,-0.03302 1.268142,-0.466928 2.63387,-0.964266 1.365727,-0.497337 2.497833,-0.918941 2.515789,-0.936897 0.01796,-0.01796 -0.03595,-0.382256 -0.119795,-0.809552 -0.08384,-0.427296 -0.183866,-1.041094 -0.222271,-1.363995 -0.04089,-0.343757 -0.09785,-0.597844 -0.137421,-0.613031 -0.03718,-0.01426 -0.562434,0.1544 -1.167241,0.374813 -0.604806,0.220414 -1.139408,0.400752 -1.188002,0.400752 -0.128099,0 -0.178569,-0.668533 -0.136751,-1.811453 0.09479,-2.59086 0.646061,-4.775233 1.792884,-7.104288 2.1512,-4.368818 6.012999,-7.57879 10.762392,-8.945827 2.739516,-0.788525 5.88142,-0.855971 8.683115,-0.186398 0.81426,0.194599 2.061749,0.605402 2.802091,0.922739 2.656129,1.138515 5.11122,3.04655 6.858057,5.329913 0.187423,0.244989 0.359422,0.452372 0.382218,0.460854 0.02279,0.0085 0.568882,-0.176202 1.213522,-0.410407 0.64464,-0.234205 1.207095,-0.425828 1.249899,-0.425828 0.138026,0 1.44668,2.154921 1.447664,2.383825 2.84e-4,0.06886 -0.638076,0.324226 -2.606016,1.042458 -1.433525,0.523189 -2.617825,0.969723 -2.631778,0.992298 -0.01395,0.02258 0.09159,0.304841 0.234542,0.627257 0.339825,0.766446 0.824039,2.230404 1.008506,3.049089 0.08068,0.358044 0.20163,1.045831 0.268785,1.528413 0.06716,0.482582 0.138968,0.89721 0.15958,0.921396 0.02061,0.02418 0.642382,-0.176465 1.381709,-0.44589 0.94468,-0.344259 1.362021,-0.472074 1.404081,-0.430015 0.09527,0.09527 0.0708,2.346493 -0.03517,3.234232 -0.827791,6.935372 -5.651324,12.62427 -12.355941,14.57267 -1.803069,0.52399 -3.855934,0.75849 -5.73494,0.65512 z m 1.839757,-6.056751 c 3.996936,-0.34367 7.431011,-2.684091 9.173802,-6.252206 0.557334,-1.141061 0.950276,-2.464651 1.073616,-3.616383 0.03368,-0.314525 0.02637,-0.374473 -0.04573,-0.374473 -0.0472,0 -0.645102,0.203788 -1.328666,0.452864 -0.683563,0.249074 -1.284749,0.452862 -1.335969,0.452862 -0.08232,0 -0.09326,-0.100235 -0.09416,-0.86327 -0.002,-1.681687 -0.344999,-3.185203 -1.080669,-4.737319 -0.223803,-0.47218 -0.2655,-0.603917 -0.207693,-0.656172 0.03979,-0.03596 1.116745,-0.441993 2.393254,-0.902299 2.561927,-0.923824 2.802089,-1.017856 2.802089,-1.097106 0,-0.106029 -0.778557,-1.233268 -1.208186,-1.749277 -0.27747,-0.333258 -0.476209,-0.523623 -0.546655,-0.523623 -0.06088,0 -0.63655,0.191052 -1.27927,0.42456 -0.64272,0.233506 -1.179564,0.424559 -1.192984,0.424559 -0.01343,0 -0.207757,-0.172665 -0.431857,-0.3837 -1.406326,-1.324341 -3.375056,-2.348654 -5.245357,-2.729115 -0.940678,-0.191355 -1.602992,-0.243399 -2.685459,-0.21102 -1.713258,0.05125 -2.948192,0.351238 -4.494563,1.091821 -1.509473,0.722912 -2.692572,1.63557 -3.737297,2.883004 -1.155593,1.379812 -1.990314,3.092174 -2.352701,4.82638 -0.163616,0.782992 -0.235877,1.40339 -0.168121,1.443411 0.02657,0.01569 0.567441,-0.160441 1.20194,-0.39141 0.634498,-0.230968 1.169443,-0.404143 1.188765,-0.384832 0.01932,0.01931 0.04064,0.421468 0.04737,0.893685 0.0068,0.472216 0.04987,1.100574 0.09588,1.396351 0.06475,0.416238 0.06838,0.552072 0.01607,0.601042 -0.03717,0.0348 -1.213893,0.477719 -2.614938,0.984269 -1.401045,0.506551 -2.572387,0.943806 -2.602984,0.971679 -0.07984,0.07272 0.211151,1.182143 0.517142,1.97164 0.450604,1.162609 1.087475,2.231834 1.921368,3.225726 0.235525,0.280716 0.462679,0.510395 0.504785,0.510395 0.04211,0 0.665908,-0.216526 1.38623,-0.481169 0.720321,-0.264641 1.353721,-0.481166 1.407555,-0.481166 0.05384,0 0.198576,0.104133 0.321648,0.231411 0.123073,0.127276 0.41482,0.386316 0.648328,0.575646 2.242862,1.818527 5.129178,2.716069 7.953409,2.473235 z"
         id="path4528"
         inkscape:connector-curvature="0" />
    </g>
  </g>
</svg>
